<?xml version="1.0" encoding="utf-8"?>
<svg viewBox="0 0 64 64" xmlns="http://www.w3.org/2000/svg">
  <g style="" transform="matrix(0.5, 0, 0, 0.5, 0, 0)">
    <path d="m75.609 73.27c0.32422 0 0.5625-0.24219 0.5625-0.5625v-0.082031c0-0.32422-0.24219-0.5625-0.5625-0.5625-0.32422 0-0.5625 0.24219-0.5625 0.5625v0.082031c-0.003906 0.32031 0.23828 0.5625 0.5625 0.5625z"/>
    <path d="m75.609 75.852c0.32422 0 0.5625-0.24219 0.5625-0.5625v-0.082031c0-0.32422-0.24219-0.5625-0.5625-0.5625-0.32422 0-0.5625 0.24219-0.5625 0.5625l-0.003906 0.078125c0 0.32422 0.24219 0.56641 0.56641 0.56641z"/>
    <path d="m75.043 62.551v0.082031c0 0.32422 0.24219 0.5625 0.5625 0.5625 0.32422 0 0.5625-0.24219 0.5625-0.5625v-0.082031c0-0.32422-0.24219-0.5625-0.5625-0.5625-0.32031-0.003906-0.5625 0.23828-0.5625 0.5625z"/>
    <path d="m75.609 70.77c0.32422 0 0.5625-0.24219 0.5625-0.5625v-0.082031c0-0.32422-0.24219-0.5625-0.5625-0.5625-0.32422 0-0.5625 0.24219-0.5625 0.5625v0.082031c-0.003906 0.32422 0.23828 0.5625 0.5625 0.5625z"/>
    <path d="m75.609 40.625c-0.32422 0-0.5625 0.24219-0.5625 0.5625 0 0.32422 0.24219 0.48438 0.5625 0.48438s0.48047-0.24219 0.48047-0.48438c0-0.32422-0.23828-0.5625-0.48047-0.5625z"/>
    <path d="m75.609 43.121c-0.32422 0-0.5625 0.24219-0.5625 0.5625 0 0.32422 0.24219 0.48438 0.5625 0.48438 0.32422 0 0.5625-0.24219 0.5625-0.48438-0.082031-0.39844-0.32031-0.5625-0.5625-0.5625z"/>
    <path d="m75.609 45.539c-0.32422 0-0.5625 0.24219-0.5625 0.5625 0 0.32422 0.24219 0.48438 0.5625 0.48438 0.32422 0 0.5625-0.24219 0.5625-0.48438-0.082031-0.32031-0.32031-0.5625-0.5625-0.5625z"/>
    <path d="m75.609 48.039c-0.32422 0-0.5625 0.24219-0.5625 0.5625 0 0.32422 0.24219 0.48438 0.5625 0.48438 0.32422 0 0.5625-0.24219 0.5625-0.48438-0.082031-0.32031-0.32031-0.5625-0.5625-0.5625z"/>
    <path d="m75.609 38.125c-0.32422 0-0.5625 0.24219-0.5625 0.5625 0 0.32422 0.24219 0.48438 0.5625 0.48438s0.48047-0.16016 0.48047-0.48438c0-0.32031-0.23828-0.5625-0.48047-0.5625z"/>
    <path d="m74.965 50.297c0 0.64453-0.96875 0.64453-0.96875 0s0.96875-0.64453 0.96875 0"/>
    <path d="m72.707 50.297c0 0.64453-0.96875 0.64453-0.96875 0s0.96875-0.64453 0.96875 0"/>
    <path d="m70.531 50.297c0 0.64453-0.96875 0.64453-0.96875 0s0.96875-0.64453 0.96875 0"/>
    <path d="m77.141 50.297c0 0.64453-0.96875 0.64453-0.96875 0s0.96875-0.64453 0.96875 0"/>
    <path d="m79.398 50.297c0 0.64453-0.96875 0.64453-0.96875 0s0.96875-0.64453 0.96875 0"/>
    <path d="m81.574 50.297c0 0.64453-0.96875 0.64453-0.96875 0s0.96875-0.64453 0.96875 0"/>
    <path d="m74.965 54.004c0 0.64453-0.96875 0.64453-0.96875 0 0-0.64453 0.96875-0.64453 0.96875 0"/>
    <path d="m72.707 54.004c0 0.64453-0.96875 0.64453-0.96875 0 0-0.64453 0.96875-0.64453 0.96875 0"/>
    <path d="m70.531 54.004c0 0.64453-0.96875 0.64453-0.96875 0 0-0.64453 0.96875-0.64453 0.96875 0"/>
    <path d="m77.141 54.004c0 0.64453-0.96875 0.64453-0.96875 0 0-0.64453 0.96875-0.64453 0.96875 0"/>
    <path d="m79.398 54.004c0 0.64453-0.96875 0.64453-0.96875 0 0-0.64453 0.96875-0.64453 0.96875 0"/>
    <path d="m81.574 54.004c0 0.64453-0.96875 0.64453-0.96875 0 0-0.64453 0.96875-0.64453 0.96875 0"/>
    <path d="m73.836 52.152c0 0.64453-0.96875 0.64453-0.96875 0 0-0.64844 0.96875-0.64844 0.96875 0"/>
    <path d="m71.656 52.152c0 0.64453-0.96484 0.64453-0.96484 0 0-0.64844 0.96484-0.64844 0.96484 0"/>
    <path d="m76.09 52.152c0 0.64453-0.96484 0.64453-0.96484 0 0-0.64844 0.96484-0.64844 0.96484 0"/>
    <path d="m78.27 52.152c0 0.64453-0.96875 0.64453-0.96875 0 0-0.64844 0.96875-0.64844 0.96875 0"/>
    <path d="m80.523 52.152c0 0.64453-0.96484 0.64453-0.96484 0 0-0.64844 0.96484-0.64844 0.96484 0"/>
    <path d="m49.328 93.746c0 0.64453-0.96484 0.64453-0.96484 0 0-0.64453 0.96484-0.64453 0.96484 0"/>
    <path d="m38.93 93.746c0 0.64453-0.96484 0.64453-0.96484 0 0-0.64453 0.96484-0.64453 0.96484 0"/>
    <path d="m97.293 91.164-2.9023-0.40234c0-0.72656-0.5625-1.2891-1.2891-1.2891h-4.918v-0.24219-0.24219h0.72656c1.1289 0 2.0977-0.96875 2.0977-2.0977v-2.0156h4.9961v-17.734c0-1.6133-1.2891-2.9023-2.9023-2.9023h-4.2695l-27.41 0.003907v0.16016l-2.9023 1.4492c-0.16016 0.082032-0.24219 0.24219-0.24219 0.48438 0 0.16016 0.082031 0.32422 0.32422 0.40234 0.5625 0.24219 1.6914 0.96875 1.6914 1.6133v0.082032 0.16016 18.297c0 1.1289 0.96875 2.0977 2.0977 2.0977h0.72656v0.24219 0.24219h-6.9336l-0.40234-25.555 31.922-4.5938v-3.3047h-2.9844l-0.24219-5.9648 4.918-12.414h3.1445c1.0469 0 1.9336 0.88672 1.9336 1.9336v7.9805c0 0.24219 0.24219 0.48437 0.48438 0.48437 0.24219 0 0.48438-0.24219 0.48438-0.48437v-7.9805c0-1.6133-1.2891-2.9023-2.9023-2.9023h-3.0625v-1.9336h-0.082031l-0.16016-1.1289c-0.082031-0.64453-0.72656-1.2109-1.4492-1.2109h-4.0312l-0.40234-2.418-20.965 0.003906h-4.8359l-0.32422-2.0156h-20.473l-0.64453 3.7891h-2.5781l2.418 20.312c0.082031 0.72656 0.72656 1.2109 1.3711 1.2109h1.3711l-0.48828 36.191h-3.2227c-0.72656 0-1.2891 0.5625-1.2891 1.2891l-2.9023 0.40234v5.1602l2.9023 0.40234v3.3047h3.3867v-2.0156h54.008v2.0156h3.3867v-3.3047l2.9023-0.40234-0.003906-5.1602zm-4.2734-25.953c1.0469 0 1.9336 0.88672 1.9336 1.9336v16.766h-4.0312v-15.316c0-0.80469-0.48438-1.5312-1.1289-1.8555v-1.5312zm-33.293 1.0469 1.6133-0.80469v1.2891c-0.24219 0.082031-0.40234 0.24219-0.64453 0.48437-0.24219-0.40625-0.56641-0.72656-0.96875-0.96875zm1.4531 20.637v-18.301c0-0.64453 0.48437-1.1289 1.1289-1.1289h12.734v0.16016 0.082031c0 0.32422 0.24219 0.5625 0.5625 0.5625 0.32422 0 0.5625-0.24219 0.5625-0.5625v-0.082031-0.16016h12.734c0.64453 0 1.1289 0.48438 1.1289 1.1289v18.297c0 0.64453-0.48438 1.1289-1.1289 1.1289h-26.438c-0.80078 0.003907-1.2852-0.5625-1.2852-1.125zm2.8203 2.3359c0-0.16016 0.16016-0.24219 0.32422-0.24219h22.57c0.16016 0 0.32422 0.082031 0.32422 0.24219v0.24219h-23.219zm20.234-41.512-0.082031-2.0977c0-0.24219-0.24219-0.48438-0.48438-0.48438-0.24219 0-0.48438 0.24219-0.48438 0.48438l0.48438 10.398h-16.121l0.48438-10.398c0-0.24219-0.16016-0.48438-0.48438-0.48438-0.24219 0-0.48438 0.16016-0.48438 0.48438l-0.082031 2.0977-4.0312-10.078h25.234zm4.1914-11.047h-25.715v-0.96875h25.715zm-0.24219-2.8984 0.16016 0.96875-25.555-0.003907 0.16016-0.96875c0-0.24219 0.24219-0.40234 0.48438-0.40234h24.262c0.24609 0.082031 0.40625 0.24219 0.48828 0.40625zm-5.7227-2.7422 0.24219 1.4492h-19.266c-0.16016 0-0.24219 0-0.40234 0.082031l0.16016-1.5312zm-20.152 0-0.48438 3.7891h-0.082031v2.418l5.0781 12.898-0.24219 5.9648h-11.043l-0.082031-2.7422h1.0469c0.72656 0 1.2891-0.5625 1.3711-1.2109l2.418-20.312h-2.5781l-0.082032-0.72656 4.6797 0.003906zm-16.77 1.6914h2.9023l0.96875 19.59h-4.8359zm3.8711 0h9.832l-2.2539 19.188c0 0.16016-0.24219 0.40234-0.40234 0.40234h-6.2891zm-12.094 19.59c-0.16016 0-0.40234-0.16016-0.40234-0.40234l-2.2578-19.184h9.832l-0.96875 19.59h-4.8359zm6.207 0.96484h10.961l0.082031 2.7422 0.16016 8.0625 0.32422 23.941h-15.879l0.48438-34.742zm-4.3516 35.711h15.961v0.48438h-15.961zm-4.2734 1.4531h58.117c0.16016 0 0.32422 0.16016 0.32422 0.32422v5.8828c0 0.16016-0.16016 0.32422-0.32422 0.32422l-58.117-0.003906c-0.16016 0-0.32422-0.16016-0.32422-0.32422v-5.9648c0.003906-0.078126 0.16406-0.23828 0.32422-0.23828zm1.1289 8.543h-1.4492v-1.1289c0.082031 0 0.24219 0.082031 0.32422 0.082031h1.1289zm55.945 0v-1.0469h1.1289c0.082032 0 0.24219 0 0.32422-0.082031v1.1289z"/>
    <path d="m62.469 76.898h26.199v9.8359h-26.199z"/>
    <path d="m40.625 95.277h4.5938c0.48438 0 0.88672-0.40234 0.88672-0.88672v-1.3711c0-0.48438-0.40234-0.88672-0.88672-0.88672h-4.5938c-0.48438 0-0.88672 0.40234-0.88672 0.88672v1.3711c0 0.48438 0.40234 0.88672 0.88672 0.88672zm4.5117-0.96875h-3.1445v-1.2109h3.1445z"/>
    <path d="m50.859 95.277h4.5938c0.48438 0 0.88672-0.40234 0.88672-0.88672l0.003906-1.3711c0-0.48438-0.40234-0.88672-0.88672-0.88672h-4.5938c-0.48438 0-0.88672 0.40234-0.88672 0.88672v1.3711c-0.003906 0.48438 0.40234 0.88672 0.88281 0.88672zm4.5156-0.96875h-3.1445v-1.2109h3.1445z"/>
  </g>
</svg>