<?xml version="1.0" encoding="UTF-8" standalone="no"?>
<!DOCTYPE svg PUBLIC "-//W3C//DTD SVG 1.1//EN" "http://www.w3.org/Graphics/SVG/1.1/DTD/svg11.dtd">
<!-- Created with Vectornator (http://vectornator.io/) -->
<svg height="100%" stroke-miterlimit="10" style="fill-rule:nonzero;clip-rule:evenodd;stroke-linecap:round;stroke-linejoin:round;" version="1.1" viewBox="0 0 64 64" width="100%" xml:space="preserve" xmlns="http://www.w3.org/2000/svg" xmlns:vectornator="http://vectornator.io" xmlns:xlink="http://www.w3.org/1999/xlink">
<defs/>
<g id="Layer-1" vectornator:layerName="Layer 1">
<g opacity="1">
<path d="M15.396 42C29.396 42 29.396 42 43.396 42C43.396 44 43.396 44 43.396 46C29.396 46 29.396 46 15.396 46C15.396 44 15.396 44 15.396 42Z" fill="none" opacity="1" stroke="#000000" stroke-linecap="butt" stroke-linejoin="round" stroke-width="2"/>
<path d="M10 14L20 14L30 14L40 14L50 14L46 23L42 32L38 41L34 50L32 50L30 50L28 50L26 50L25.3474 48.5317L24.6948 47.0634L23.5819 44.5593L22.469 42.0553L19.3518 35.0415L16.2345 28.0276L13.1173 21.0138L10 14Z" fill="none" opacity="1" stroke="#000000" stroke-linecap="butt" stroke-linejoin="round" stroke-width="4"/>
<path d="M46 22C46 22 54 18 54 26C54 43.889 38 42 38 42" fill="none" opacity="1" stroke="#000000" stroke-linecap="butt" stroke-linejoin="round" stroke-width="2"/>
</g>
</g>
</svg>
